<svg xmlns="http://www.w3.org/2000/svg" viewBox="0 0 48 48">
  <rect x="6" y="10" width="28" height="28" rx="5" fill="#cfe6ff" stroke="#2f80ed" stroke-width="2" />
  <rect x="12" y="16" width="16" height="16" rx="2.6" fill="#ffffff" />
  <path
    fill="#d9b46a"
    d="M38.2 17.6l1.8-2.1-1.7-1.7-2.1 1.8a8.7 8.7 0 0 0-2-.8l-.3-2.7h-2.4l-.3 2.7c-.7.2-1.4.4-2 .8l-2.1-1.8-1.7 1.7 1.8 2.1c-.3.6-.6 1.3-.8 2l-2.7.3v2.4l2.7.3c.2.7.5 1.4.8 2l-1.8 2.1 1.7 1.7 2.1-1.8c.6.3 1.3.6 2 .8l.3 2.7h2.4l.3-2.7c.7-.2 1.4-.5 2-.8l2.1 1.8 1.7-1.7-1.8-2.1c.3-.6.6-1.3.8-2l2.7-.3v-2.4l-2.7-.3c-.2-.7-.4-1.4-.8-2Zm-5.5 7.9a4.4 4.4 0 1 1 0-8.8 4.4 4.4 0 0 1 0 8.8Z"
  />
  <circle cx="20" cy="24" r="2.8" fill="#67b8ff" />
</svg>
